<!DOCTYPE svg PUBLIC "-//W3C//DTD SVG 1.1//EN" "http://www.w3.org/Graphics/SVG/1.1/DTD/svg11.dtd">
<!-- Uploaded to: SVG Repo, www.svgrepo.com, Transformed by: SVG Repo Mixer Tools -->
<svg fill="#ffffff" width="800px" height="800px" viewBox="-2 -2 24.00 24.00" xmlns="http://www.w3.org/2000/svg">
<g id="SVGRepo_bgCarrier" stroke-width="0">
<rect x="-2" y="-2" width="24.00" height="24.00" rx="3.12" fill="#000000" strokewidth="0"/>
</g>
<g id="SVGRepo_tracerCarrier" stroke-linecap="round" stroke-linejoin="round"/>
<g id="SVGRepo_iconCarrier">
<path d="M17 1h-2a1 1 0 0 0-1 1v16.992h4V2a1 1 0 0 0-1-1zm-6 6H9a1 1 0 0 0-1 1v10.992h4V8a1 1 0 0 0-1-1zm-6 6H3a1 1 0 0 0-1 1v4.992h4V14a1 1 0 0 0-1-1z"/>
</g>
</svg>