<!DOCTYPE svg PUBLIC "-//W3C//DTD SVG 1.1//EN" "http://www.w3.org/Graphics/SVG/1.1/DTD/svg11.dtd">
<!-- Uploaded to: SVG Repo, www.svgrepo.com, Transformed by: SVG Repo Mixer Tools -->
<svg width="800px" height="800px" viewBox="-2.4 -2.4 28.80 28.80" fill="none" xmlns="http://www.w3.org/2000/svg">
<g id="SVGRepo_bgCarrier" stroke-width="0">
<rect x="-2.4" y="-2.4" width="28.80" height="28.80" rx="14.4" fill="#000000" strokewidth="0"/>
</g>
<g id="SVGRepo_tracerCarrier" stroke-linecap="round" stroke-linejoin="round"/>
<g id="SVGRepo_iconCarrier"> <path fill-rule="evenodd" clip-rule="evenodd" d="M6.63636 3H15.1571L19.7273 7.57019V19.3636C19.7273 20.2674 18.9946 21 18.0909 21H6.63636C5.73262 21 5 20.2674 5 19.3636V4.63636C5 3.73262 5.73262 3 6.63636 3ZM13.1818 4.63636H6.63636V19.3636H18.0909V9.54545H14.8182C13.9144 9.54545 13.1818 8.81283 13.1818 7.90909V4.63636ZM14.8182 4.97527V7.90909H17.752L14.8182 4.97527Z" fill="#ffffff"/> <path d="M6.63636 4.63636H13.1818V7.90909C13.1818 8.81283 13.9144 9.54545 14.8182 9.54545H18.0909V19.3636H6.63636V4.63636Z" fill="#ffffff"/> </g>
</svg>