<!DOCTYPE svg PUBLIC "-//W3C//DTD SVG 1.1//EN" "http://www.w3.org/Graphics/SVG/1.1/DTD/svg11.dtd">
<!-- Uploaded to: SVG Repo, www.svgrepo.com, Transformed by: SVG Repo Mixer Tools -->
<svg fill="#ffffff" width="800px" height="800px" viewBox="-25.6 -25.6 307.20 307.20" id="Flat" xmlns="http://www.w3.org/2000/svg">
<g id="SVGRepo_bgCarrier" stroke-width="0">
<rect x="-25.6" y="-25.6" width="307.20" height="307.20" rx="27.647999999999996" fill="#000000" strokewidth="0"/>
</g>
<g id="SVGRepo_tracerCarrier" stroke-linecap="round" stroke-linejoin="round"/>
<g id="SVGRepo_iconCarrier"> <path d="M224,170.34863,223.99951,208a16.018,16.018,0,0,1-16,16l-42.21924.001H106.21973L63.999,224a16.01791,16.01791,0,0,1-15.99951-16L48,175.78223A36.47481,36.47481,0,0,1,43.99951,176a36,36,0,0,1,0-72A36.47481,36.47481,0,0,1,48,104.21777L47.99951,72a16.018,16.018,0,0,1,16-16l36.21778.001A36.60975,36.60975,0,0,1,99.99951,52a36,36,0,0,1,72,0,36.60975,36.60975,0,0,1-.21777,4.001L207.999,56a16.01812,16.01812,0,0,1,16.00049,16L224,109.65137a7.99966,7.99966,0,0,1-11.05957,7.3916A23.25464,23.25464,0,0,0,204,115.27246c-13.2334,0-24,11.09277-24,24.72754s10.7666,24.72754,24,24.72754a23.25464,23.25464,0,0,0,8.94043-1.77051A7.99966,7.99966,0,0,1,224,170.34863Z"/> </g>
</svg>